<svg xmlns="http://www.w3.org/2000/svg" width="800" height="500" viewBox="0 0 800 500" role="img" aria-label="AulaIQ education platform preview">
  <defs>
    <linearGradient id="bg3" x1="0%" y1="0%" x2="100%" y2="100%">
      <stop offset="0%" stop-color="#0f1419"/>
      <stop offset="100%" stop-color="#1a2332"/>
    </linearGradient>
    <linearGradient id="cyan" x1="0%" y1="0%" x2="100%" y2="0%">
      <stop offset="0%" stop-color="#22d3ee"/>
      <stop offset="100%" stop-color="#06b6d4"/>
    </linearGradient>
  </defs>
  <rect width="800" height="500" fill="url(#bg3)"/>
  <rect x="24" y="24" width="752" height="48" rx="12" fill="#1a2332" stroke="#334155"/>
  <text x="52" y="54" fill="#f8fafc" font-family="system-ui,sans-serif" font-size="16" font-weight="600">AulaIQ</text>
  <text x="52" y="100" fill="#67e8f9" font-family="system-ui,sans-serif" font-size="13">Plataforma educativa con IA</text>
  <rect x="24" y="120" width="240" height="356" rx="12" fill="#1a2332" stroke="#334155"/>
  <rect x="280" y="120" width="496" height="200" rx="12" fill="#1a2332" stroke="#334155"/>
  <rect x="280" y="336" width="240" height="140" rx="12" fill="#1a2332" stroke="#334155"/>
  <rect x="536" y="336" width="240" height="140" rx="12" fill="#1a2332" stroke="#334155"/>
  <rect x="44" y="150" width="200" height="12" rx="4" fill="#22d3ee" opacity="0.8"/>
  <rect x="44" y="180" width="180" height="8" rx="3" fill="#334155"/>
  <rect x="44" y="210" width="200" height="8" rx="3" fill="#334155"/>
  <rect x="44" y="240" width="160" height="8" rx="3" fill="#334155"/>
  <rect x="300" y="150" width="120" height="80" rx="8" fill="url(#cyan)" opacity="0.2"/>
  <text x="300" y="280" fill="#22d3ee" font-size="24" font-weight="700" font-family="system-ui">92%</text>
  <text x="300" y="300" fill="#64748b" font-size="11" font-family="system-ui">Progreso del grupo</text>
  <circle cx="400" cy="406" r="40" fill="none" stroke="#334155" stroke-width="8"/>
  <circle cx="400" cy="406" r="40" fill="none" stroke="url(#cyan)" stroke-width="8" stroke-dasharray="180 251"/>
  <text x="556" y="410" fill="#f8fafc" font-size="20" font-weight="600" font-family="system-ui">IA</text>
  <text x="556" y="430" fill="#64748b" font-size="10" font-family="system-ui">Asistente activo</text>
</svg>
