<svg xmlns="http://www.w3.org/2000/svg" width="800" height="500" viewBox="0 0 800 500" role="img" aria-label="Careflow dashboard preview">
  <defs>
    <linearGradient id="bg" x1="0%" y1="0%" x2="100%" y2="100%">
      <stop offset="0%" stop-color="#0f172a"/>
      <stop offset="100%" stop-color="#1e293b"/>
    </linearGradient>
    <linearGradient id="accent" x1="0%" y1="0%" x2="100%" y2="0%">
      <stop offset="0%" stop-color="#34d399"/>
      <stop offset="100%" stop-color="#10b981"/>
    </linearGradient>
  </defs>
  <rect width="800" height="500" fill="url(#bg)"/>
  <rect x="24" y="24" width="752" height="48" rx="12" fill="#1e293b" stroke="#334155"/>
  <circle cx="52" cy="48" r="8" fill="#34d399"/>
  <text x="72" y="54" fill="#f8fafc" font-family="system-ui,sans-serif" font-size="16" font-weight="600">Careflow</text>
  <text x="72" y="100" fill="#94a3b8" font-family="system-ui,sans-serif" font-size="13">Panel de pacientes y seguimiento clínico</text>
  <rect x="24" y="120" width="220" height="140" rx="12" fill="#1e293b" stroke="#334155"/>
  <rect x="260" y="120" width="220" height="140" rx="12" fill="#1e293b" stroke="#334155"/>
  <rect x="496" y="120" width="280" height="140" rx="12" fill="#1e293b" stroke="#334155"/>
  <text x="44" y="155" fill="#64748b" font-size="11" font-family="system-ui">Citas hoy</text>
  <text x="44" y="190" fill="#34d399" font-size="32" font-weight="700" font-family="system-ui">24</text>
  <text x="280" y="155" fill="#64748b" font-size="11" font-family="system-ui">Pacientes activos</text>
  <text x="280" y="190" fill="#f8fafc" font-size="32" font-weight="700" font-family="system-ui">186</text>
  <rect x="516" y="155" width="240" height="8" rx="4" fill="#334155"/>
  <rect x="516" y="155" width="180" height="8" rx="4" fill="url(#accent)"/>
  <rect x="24" y="280" width="752" height="196" rx="12" fill="#1e293b" stroke="#334155"/>
  <rect x="44" y="310" width="120" height="12" rx="4" fill="#334155"/>
  <rect x="44" y="340" width="680" height="10" rx="3" fill="#0f172a"/>
  <rect x="44" y="365" width="520" height="10" rx="3" fill="#0f172a"/>
  <rect x="44" y="390" width="600" height="10" rx="3" fill="#0f172a"/>
  <rect x="44" y="415" width="400" height="10" rx="3" fill="#0f172a"/>
</svg>
